<mxfile host="app.diagrams.net" modified="2024-07-22T11:17:51.978Z" agent="Mozilla/5.0 (Windows NT 10.0; Win64; x64) AppleWebKit/537.36 (KHTML, like Gecko) Chrome/126.0.0.0 Safari/537.36" version="24.2.3" etag="eVWqNItGb7JOIuhwTDvW" type="github">
  <diagram name="第 1 页" id="rX4XqB-BK7pTMZINfUZ2">
    <mxGraphModel>
      <root>
        <mxCell id="0" />
        <mxCell id="1" parent="0" />
      </root>
    </mxGraphModel>
  </diagram>
</mxfile>
